<?xml version="1.0" standalone="no"?>
<!DOCTYPE svg PUBLIC "-//W3C//DTD SVG 20010904//EN"
 "http://www.w3.org/TR/2001/REC-SVG-20010904/DTD/svg10.dtd">
<svg version="1.0" xmlns="http://www.w3.org/2000/svg"
 width="512.000000pt" height="512.000000pt" viewBox="0 0 512.000000 512.000000"
 preserveAspectRatio="xMidYMid meet">

<g transform="translate(0.000000,512.000000) scale(0.100000,-0.100000)"
fill="#000000" stroke="none">
<path d="M2480 4027 c-97 -27 -186 -110 -216 -199 -22 -69 -21 -165 5 -222
l20 -46 -32 0 c-39 0 -75 -23 -88 -56 -7 -20 3 -55 55 -184 l64 -160 -214 0
c-165 0 -214 3 -214 13 0 6 11 55 25 107 31 118 31 151 4 176 -20 18 -42 19
-321 22 -325 3 -335 2 -359 -52 -9 -19 11 -129 47 -248 5 -16 -5 -18 -105 -18
-121 0 -153 -8 -175 -42 -9 -15 -24 -118 -43 -313 l-28 -290 -206 -3 c-191 -2
-208 -4 -224 -22 -25 -28 -23 -76 4 -103 20 -21 31 -22 216 -25 l195 -4 -5
-51 c-3 -29 -8 -67 -11 -85 l-5 -33 -255 3 -256 3 -21 25 c-18 21 -36 103
-107 493 l-84 467 20 27 c38 51 105 51 138 1 8 -13 31 -113 50 -223 43 -242
51 -272 76 -285 55 -29 115 4 113 63 -2 57 -83 479 -98 506 -18 35 -72 85
-115 107 -50 25 -143 23 -196 -4 -76 -39 -134 -128 -134 -206 0 -31 154 -891
171 -951 6 -22 24 -56 39 -76 l29 -36 -40 -479 c-30 -355 -38 -484 -30 -501
21 -47 98 -52 126 -9 10 14 25 160 51 474 l38 452 237 0 238 0 -5 -32 c-2 -18
-16 -146 -29 -285 -28 -276 -26 -292 26 -313 57 -24 176 11 273 81 l41 30 6
-28 c4 -15 12 -98 18 -183 7 -85 17 -167 22 -182 14 -35 61 -55 95 -40 46 22
49 44 30 263 -9 111 -14 204 -11 207 12 12 85 -21 148 -67 88 -64 150 -85 252
-85 89 0 157 24 244 88 73 53 106 66 165 66 69 0 94 -10 184 -71 39 -28 92
-57 117 -66 l45 -15 0 -89 0 -89 -214 0 c-193 0 -216 -2 -237 -18 -33 -27 -30
-78 5 -109 l27 -23 499 0 499 0 27 23 c35 31 38 82 5 109 -21 16 -44 18 -237
18 l-214 0 0 89 0 89 45 16 c25 8 75 36 111 61 96 67 116 75 184 75 68 0 94
-11 186 -76 86 -61 133 -77 234 -77 104 0 143 14 250 87 72 49 134 76 146 63
2 -2 -3 -95 -12 -206 -19 -219 -16 -241 30 -263 34 -15 81 5 95 40 5 15 15 97
22 182 6 85 14 168 18 183 l6 28 41 -30 c97 -70 216 -105 273 -81 52 21 54 37
26 313 -13 139 -27 267 -29 285 l-5 32 238 0 237 0 38 -452 c26 -314 41 -460
51 -474 28 -43 105 -38 126 9 8 17 0 147 -30 502 -39 466 -39 480 -22 500 10
11 26 35 35 53 16 32 186 934 186 988 0 78 -58 167 -134 206 -53 27 -146 29
-196 4 -43 -22 -97 -72 -115 -107 -15 -27 -96 -449 -98 -506 -2 -59 58 -92
113 -63 25 13 33 44 76 285 22 127 42 209 53 224 36 50 103 48 137 -5 17 -25
15 -39 -67 -492 -70 -389 -88 -471 -106 -492 l-21 -25 -256 -3 -255 -3 -5 33
c-3 18 -8 56 -11 85 l-5 51 195 4 c185 3 196 4 216 25 27 27 29 75 4 103 -16
18 -33 20 -224 22 l-206 3 -28 290 c-19 195 -34 298 -43 313 -22 34 -54 42
-175 42 -100 0 -110 2 -105 18 36 119 56 229 47 248 -24 54 -34 55 -359 52
-279 -3 -301 -4 -321 -22 -27 -25 -27 -58 4 -176 14 -52 25 -101 25 -107 0
-10 -49 -13 -214 -13 l-214 0 59 148 c33 81 60 160 61 176 1 39 -41 76 -87 76
l-34 0 20 46 c26 57 27 153 4 223 -21 65 -91 143 -158 175 -63 31 -154 41
-217 23z m150 -159 c24 -13 52 -35 63 -49 57 -79 31 -196 -54 -240 -112 -57
-241 18 -241 140 0 75 33 125 102 155 49 21 79 20 130 -6z m140 -461 c0 -2
-22 -57 -48 -123 l-48 -119 -114 0 -114 0 -48 119 c-26 66 -48 121 -48 123 0
2 95 3 210 3 116 0 210 -1 210 -3z m-1030 -84 c0 -5 -4 -24 -9 -43 -6 -19 -15
-54 -21 -77 l-11 -43 -143 0 -142 0 -17 73 c-10 39 -17 78 -17 85 0 9 43 12
180 12 99 0 180 -3 180 -7z m2000 -5 c0 -7 -7 -46 -17 -85 l-17 -73 -142 0
-143 0 -11 43 c-6 23 -15 58 -21 77 -5 19 -9 38 -9 43 0 4 81 7 180 7 137 0
180 -3 180 -12z m347 -1028 c39 -393 70 -717 67 -719 -2 -3 -19 6 -37 19 -128
96 -188 120 -299 120 -85 0 -163 -26 -232 -78 -137 -103 -215 -106 -350 -13
-102 70 -160 90 -256 90 -96 0 -154 -20 -256 -90 -130 -90 -198 -90 -328 0
-102 70 -160 90 -256 90 -96 0 -154 -20 -257 -91 -118 -81 -203 -87 -299 -21
-22 14 -57 39 -79 54 -66 44 -133 62 -227 57 -94 -4 -152 -27 -251 -99 -31
-23 -59 -40 -61 -38 -5 4 132 1405 139 1427 4 10 300 12 1457 10 l1453 -3 72
-715z"/>
</g>
</svg>
