<?xml version="1.0" standalone="no"?>
<!DOCTYPE svg PUBLIC "-//W3C//DTD SVG 20010904//EN"
 "http://www.w3.org/TR/2001/REC-SVG-20010904/DTD/svg10.dtd">
<svg version="1.0" xmlns="http://www.w3.org/2000/svg"
 width="512.000000pt" height="512.000000pt" viewBox="0 0 512.000000 512.000000"
 preserveAspectRatio="xMidYMid meet">

<g transform="translate(0.000000,512.000000) scale(0.100000,-0.100000)"
fill="#000000" stroke="none">
<path d="M94 3366 c-38 -17 -71 -57 -85 -105 -9 -31 2 -103 76 -506 47 -258
89 -486 91 -505 3 -19 -15 -259 -40 -534 -53 -575 -54 -588 -26 -616 33 -33
108 -23 125 17 4 10 28 245 54 523 l46 505 283 3 282 2 -5 -37 c-3 -21 -16
-150 -30 -287 -27 -272 -25 -292 26 -310 36 -12 68 -2 125 39 27 19 61 41 75
49 l25 15 23 -247 c20 -220 24 -249 43 -269 37 -39 110 -26 128 22 8 21 -11
295 -34 488 -4 36 -4 37 30 37 47 0 94 -21 173 -77 150 -108 282 -110 422 -6
90 66 137 84 218 85 88 1 129 -13 222 -77 42 -28 90 -57 108 -64 l31 -13 0
-129 0 -129 -204 0 c-210 0 -258 -7 -276 -40 -17 -32 -11 -75 13 -98 l23 -22
527 0 c514 0 528 1 547 20 30 30 30 83 -1 115 -18 19 -35 20 -244 23 l-225 3
0 129 0 128 31 11 c17 6 60 31 95 56 96 69 142 86 229 86 88 0 132 -16 226
-85 145 -106 281 -101 434 15 55 41 121 69 164 69 l27 0 -23 -242 c-12 -134
-20 -255 -17 -270 11 -57 92 -78 132 -35 19 20 23 49 43 267 12 135 23 246 25
248 1 2 39 -22 84 -52 92 -64 127 -70 165 -31 19 18 25 35 25 69 0 44 -2 47
-42 67 -24 12 -59 34 -78 49 -85 67 -185 100 -301 100 -107 0 -190 -28 -297
-100 -76 -52 -95 -60 -135 -60 -39 0 -57 8 -126 55 -127 87 -165 99 -306 99
-140 0 -196 -17 -293 -88 -81 -60 -94 -66 -144 -66 -36 0 -57 9 -131 60 -107
72 -188 100 -296 100 -123 0 -205 -29 -327 -116 -53 -38 -69 -44 -110 -44 -41
0 -58 7 -104 40 -114 82 -209 120 -306 120 -74 0 -137 25 -178 70 -60 67 -60
65 -10 559 24 245 49 484 54 531 6 47 10 101 10 120 l0 35 -64 -3 c-102 -6
-100 0 -130 -307 -14 -143 -29 -281 -32 -307 l-6 -48 -194 0 c-195 0 -249 8
-269 40 -4 6 -38 181 -76 388 -48 257 -76 385 -89 407 -40 64 -134 92 -206 61z"/>
<path d="M4878 3360 c-65 -35 -72 -56 -147 -462 -38 -207 -72 -382 -76 -388
-20 -32 -74 -40 -271 -40 l-196 0 5 -32 c3 -18 11 -90 18 -160 l12 -128 281
-2 281 -3 46 -505 c26 -278 50 -513 54 -523 17 -40 92 -50 125 -17 28 28 27
41 -26 616 -25 275 -44 513 -41 529 2 17 43 247 92 512 l88 481 -24 48 c-32
63 -65 86 -131 91 -39 2 -63 -2 -90 -17z"/>
</g>
</svg>
