<?xml version="1.0" standalone="no"?>
<!DOCTYPE svg PUBLIC "-//W3C//DTD SVG 20010904//EN"
 "http://www.w3.org/TR/2001/REC-SVG-20010904/DTD/svg10.dtd">
<svg version="1.0" xmlns="http://www.w3.org/2000/svg"
 width="512.000000pt" height="512.000000pt" viewBox="0 0 512.000000 512.000000"
 preserveAspectRatio="xMidYMid meet">

<g transform="translate(0.000000,512.000000) scale(0.100000,-0.100000)"
fill="#000000" stroke="none">
<path d="M2352 3970 c-36 -15 -47 -52 -34 -111 18 -76 15 -90 -27 -147 -87
-115 -101 -266 -37 -394 l23 -48 -82 0 c-45 0 -198 -3 -339 -7 l-258 -6 8 149
c12 215 12 223 -15 245 -21 17 -43 19 -215 19 -192 0 -193 0 -216 -25 -22 -24
-23 -27 -16 -172 4 -81 9 -162 12 -180 l6 -31 -180 -4 c-164 -3 -183 -5 -208
-24 -60 -44 -69 -66 -72 -186 -5 -158 24 -222 111 -243 27 -7 27 -8 27 -96 l0
-89 -73 0 -72 0 -134 498 c-73 273 -139 511 -148 529 -24 52 -80 73 -199 73
-74 0 -108 -4 -134 -18 -41 -20 -80 -74 -80 -111 0 -27 181 -715 201 -763 15
-37 59 -54 96 -36 56 27 55 38 -45 411 -51 189 -92 349 -92 356 0 7 22 11 63
11 l62 0 134 -503 c74 -276 140 -515 148 -530 26 -51 66 -67 176 -67 l97 0 0
-60 0 -60 -180 0 -179 0 -11 43 c-48 185 -75 224 -138 198 -54 -22 -57 -52
-22 -187 18 -65 40 -133 50 -150 18 -31 17 -35 -73 -534 -68 -380 -88 -508
-81 -528 15 -44 46 -52 201 -52 189 0 185 -3 218 180 14 74 27 141 30 148 3 9
28 12 92 10 l88 -3 3 -147 c3 -193 -2 -188 193 -188 148 0 180 8 198 47 6 14
11 81 11 159 l0 135 88 -3 87 -3 27 -145 c36 -195 30 -190 221 -190 155 0 186
8 201 51 7 20 -14 153 -81 525 l-90 499 21 28 c17 23 21 43 21 100 0 40 -3 84
-8 100 l-7 27 80 0 80 0 0 -171 c0 -94 4 -178 10 -188 5 -10 22 -24 39 -30 24
-10 34 -10 59 3 39 20 42 31 42 142 l0 94 75 0 75 0 0 -96 c0 -93 1 -96 30
-126 25 -24 36 -29 58 -24 51 13 62 38 62 147 l0 99 74 0 74 0 4 -100 c4 -114
20 -143 78 -143 58 0 74 29 78 143 l4 100 74 0 74 0 0 -99 c0 -109 11 -134 62
-147 22 -5 33 0 58 24 29 30 30 33 30 126 l0 96 75 0 75 0 0 -96 c0 -107 6
-126 49 -143 24 -10 34 -10 59 3 16 8 32 23 36 31 3 9 6 93 6 186 l0 169 80 0
80 0 -7 -27 c-5 -16 -8 -60 -8 -100 0 -57 4 -77 21 -100 l21 -28 -90 -499
c-67 -373 -88 -505 -81 -525 15 -43 46 -51 201 -51 191 0 185 -5 221 190 l27
145 88 3 87 3 0 -135 c0 -78 5 -145 11 -159 18 -39 50 -47 198 -47 195 0 190
-5 193 188 l3 147 88 3 c64 2 89 -1 92 -10 3 -7 16 -74 30 -148 33 -183 30
-180 215 -180 224 0 225 2 187 228 -24 137 -31 160 -53 180 -29 26 -61 28 -91
7 -31 -22 -34 -53 -14 -158 10 -53 16 -99 13 -102 -7 -7 -102 -6 -102 1 0 3
-36 204 -80 448 -44 243 -80 446 -80 450 0 4 24 6 52 4 l53 -3 35 -192 c39
-215 49 -236 108 -231 24 2 41 11 55 30 l20 26 -35 198 c-35 193 -35 198 -18
228 20 35 360 1297 360 1337 0 37 -39 91 -80 111 -26 14 -60 18 -134 18 -119
0 -175 -21 -199 -73 -9 -18 -75 -256 -148 -529 l-134 -498 -72 0 -73 0 0 89
c0 88 0 89 27 96 87 21 116 85 111 243 -3 120 -12 142 -72 186 -25 19 -44 21
-208 24 l-180 4 6 31 c3 18 8 99 12 180 7 145 6 148 -16 172 -23 25 -24 25
-216 25 -172 0 -194 -2 -215 -19 -27 -22 -27 -30 -15 -245 l8 -149 -288 7
c-159 4 -290 8 -291 10 -1 1 10 31 24 66 51 124 32 265 -51 379 -39 53 -42 69
-25 136 15 58 5 91 -31 110 -24 12 -72 15 -257 14 -125 0 -238 -4 -251 -9z
m380 -200 c3 -48 11 -68 36 -102 60 -80 76 -119 76 -183 0 -73 -24 -125 -83
-178 l-41 -37 -115 0 -115 0 -41 37 c-58 52 -82 105 -83 178 0 64 11 88 78
185 23 32 31 56 34 101 l4 59 123 0 123 0 4 -60z m2228 -212 c0 -9 -294 -1117
-316 -1190 -5 -16 -23 -18 -185 -18 l-179 0 0 60 0 60 98 0 c109 0 149 16 175
67 8 15 74 254 148 530 l134 503 63 0 c40 0 62 -4 62 -12z m-3503 -120 c-4
-46 -7 -104 -7 -130 l0 -48 -69 0 -70 0 -5 53 c-3 28 -8 87 -10 130 l-6 77 87
0 86 0 -6 -82z m2367 5 c-2 -43 -7 -102 -10 -130 l-5 -53 -70 0 -69 0 0 48 c0
26 -3 84 -7 130 l-6 82 86 0 87 0 -6 -77z m-734 -518 l0 -195 -530 0 -530 0 0
195 0 195 530 0 530 0 0 -195z m-1210 105 l0 -80 -515 0 -515 0 0 80 0 80 515
0 515 0 0 -80z m2390 0 l0 -80 -224 0 c-204 0 -226 -2 -247 -19 -52 -42 -17
-131 52 -131 l29 0 0 -90 0 -90 -320 0 -320 0 0 90 0 90 139 0 c125 0 141 2
165 21 33 26 35 73 4 106 -21 22 -28 23 -165 23 l-143 0 0 80 0 80 515 0 515
0 0 -80z m-3180 -985 l0 -755 -50 0 -50 0 0 755 0 755 50 0 50 0 0 -755z m790
665 l0 -90 -320 0 -320 0 0 90 0 90 320 0 320 0 0 -90z m2250 -665 l0 -755
-50 0 -50 0 0 755 0 755 50 0 50 0 0 -755z m-1040 480 l0 -55 -530 0 -530 0 0
55 0 55 530 0 530 0 0 -55z m-1549 -65 c22 -12 49 -61 49 -90 0 -19 -5 -20
-175 -20 l-175 0 0 60 0 60 141 0 c77 0 149 -5 160 -10z m2339 -50 l0 -60
-175 0 c-170 0 -175 1 -175 20 0 28 26 77 47 89 10 6 82 11 161 11 l142 0 0
-60z m-3250 -217 c0 -5 -36 -206 -80 -448 -44 -242 -80 -444 -80 -448 0 -4
-24 -7 -52 -5 -40 2 -53 7 -51 18 6 40 154 867 158 878 5 13 105 18 105 5z
m208 -150 l3 -153 -57 0 c-55 0 -56 0 -50 28 3 15 15 81 27 147 11 66 23 123
26 128 3 4 15 7 26 5 21 -3 22 -8 25 -155z m468 37 c12 -63 25 -132 28 -152
l6 -38 -50 0 -50 0 0 156 c0 155 0 155 22 152 21 -3 25 -14 44 -118z m315
-310 c43 -234 78 -437 78 -452 1 -27 -1 -28 -49 -28 -27 0 -50 2 -50 5 0 2
-36 203 -80 447 -44 243 -80 446 -80 451 0 4 23 7 52 5 l52 -3 77 -425z m2059
423 c0 -5 -36 -207 -80 -451 -44 -243 -80 -445 -80 -447 0 -3 -22 -5 -50 -5
-44 0 -50 2 -50 22 0 20 147 850 155 876 5 13 105 18 105 5z m200 -148 l0
-155 -50 0 c-27 0 -50 2 -50 3 0 10 51 284 55 295 2 6 14 12 25 12 19 0 20 -6
20 -155z m454 147 c2 -4 14 -61 25 -127 12 -66 24 -132 27 -147 6 -28 5 -28
-50 -28 l-56 0 0 148 c0 82 3 152 7 155 9 9 41 9 47 -1z m-3496 -509 l3 -53
-81 0 c-73 0 -81 2 -76 18 3 9 8 34 12 55 l6 38 67 -3 66 -3 3 -52z m536 20
c4 -21 9 -46 12 -55 5 -16 -3 -18 -70 -18 l-76 0 0 55 0 55 64 0 64 0 6 -37z
m2506 -18 l0 -55 -76 0 c-67 0 -75 2 -70 18 3 9 8 34 12 55 l6 37 64 0 64 0 0
-55z m544 18 c4 -21 9 -46 12 -55 5 -16 -3 -18 -75 -18 l-81 0 0 48 c0 27 3
52 7 55 3 4 34 7 69 7 l62 0 6 -37z"/>
</g>
</svg>
