<?xml version="1.0" standalone="no"?>
<!DOCTYPE svg PUBLIC "-//W3C//DTD SVG 20010904//EN"
 "http://www.w3.org/TR/2001/REC-SVG-20010904/DTD/svg10.dtd">
<svg version="1.0" xmlns="http://www.w3.org/2000/svg"
 width="512.000000pt" height="512.000000pt" viewBox="0 0 512.000000 512.000000"
 preserveAspectRatio="xMidYMid meet">

<g transform="translate(0.000000,512.000000) scale(0.100000,-0.100000)"
fill="#000000" stroke="none">
<path d="M786 4230 c-63 -16 -153 -70 -197 -117 -22 -24 -55 -74 -72 -111
l-32 -67 0 -175 c0 -175 0 -175 31 -240 37 -80 80 -129 145 -172 l49 -31 -38
-25 c-20 -14 -54 -41 -74 -60 l-38 -36 0 57 c0 48 -4 62 -25 82 -24 25 -26 25
-215 25 -189 0 -191 0 -215 -25 l-25 -24 0 -1191 0 -1191 25 -24 c23 -24 28
-25 175 -25 204 0 188 -20 224 270 15 124 32 258 38 297 l10 73 169 0 c93 0
169 -3 169 -7 0 -5 16 -132 35 -283 19 -151 35 -281 35 -288 0 -7 11 -24 25
-37 23 -24 28 -25 175 -25 147 0 152 1 175 25 l25 24 0 363 0 363 31 -59 c52
-100 109 -177 201 -271 l88 -90 0 -153 c0 -149 1 -154 25 -177 l24 -25 311 0
311 0 24 25 c18 17 25 35 25 62 0 55 -26 147 -55 196 -31 54 -108 129 -164
160 l-44 25 -234 549 c-130 304 -244 556 -255 566 -17 14 -41 17 -159 17
l-139 0 0 28 c0 15 -3 51 -6 80 l-7 52 268 0 c181 0 281 4 309 12 86 26 166
136 166 228 0 92 -80 202 -166 228 -28 8 -134 12 -335 12 -162 0 -299 4 -305
8 -6 4 -24 28 -42 53 -35 52 -88 101 -134 125 l-32 16 30 21 c58 41 117 111
148 176 l31 66 0 176 0 175 -37 76 c-68 136 -188 217 -336 224 -42 2 -94 -1
-116 -6z m201 -178 c22 -11 45 -28 52 -36 12 -14 3 -16 -88 -16 -95 0 -104 -2
-126 -25 -22 -21 -25 -33 -25 -99 l0 -75 -74 -60 c-41 -34 -78 -61 -81 -61 -4
0 -5 51 -3 113 4 120 15 155 67 210 69 75 186 96 278 49z m133 -303 c0 -49 -5
-110 -11 -134 -14 -54 -67 -118 -123 -147 -57 -30 -155 -31 -212 -1 -78 41
-78 41 54 148 66 52 123 103 126 111 3 9 6 38 6 65 l0 49 80 0 80 0 0 -91z
m-716 -571 c3 -13 19 -273 36 -578 41 -742 38 -709 66 -737 l23 -23 336 0 335
0 0 -80 0 -80 -480 0 -480 0 0 760 0 760 80 0 c75 0 80 -1 84 -22z m741 -178
l119 -40 303 0 304 0 24 -25 c30 -29 32 -74 6 -106 l-19 -24 -332 -3 -332 -3
-152 31 c-160 32 -186 45 -186 95 0 45 78 113 130 115 9 0 70 -18 135 -40z
m979 -1832 c37 -25 96 -99 96 -120 0 -4 -85 -8 -190 -8 l-190 0 0 81 0 81 123
-4 c114 -3 125 -5 161 -30z"/>
<path d="M4146 4230 c-63 -16 -153 -70 -197 -117 -22 -24 -55 -74 -72 -111
l-32 -67 0 -175 c0 -170 1 -177 27 -233 35 -75 78 -128 135 -169 39 -29 43
-34 28 -43 -51 -29 -117 -90 -146 -132 -18 -26 -37 -51 -43 -55 -6 -4 -143 -8
-305 -8 -201 0 -307 -4 -335 -12 -86 -26 -166 -136 -166 -228 0 -92 80 -202
166 -228 28 -8 128 -12 309 -12 l268 0 -7 -52 c-3 -29 -6 -65 -6 -80 l0 -28
-139 0 c-118 0 -142 -3 -159 -17 -11 -10 -125 -262 -255 -566 l-234 -549 -50
-28 c-27 -16 -74 -55 -105 -89 -64 -69 -96 -141 -105 -237 -5 -57 -4 -64 20
-88 l26 -26 311 0 311 0 24 25 c24 23 25 28 25 179 l0 154 71 69 c84 81 159
179 211 277 l37 71 1 -363 0 -363 25 -24 c23 -24 28 -25 175 -25 204 0 188
-20 224 270 15 124 32 258 38 298 l10 72 169 0 c93 0 169 -3 169 -7 0 -5 16
-129 35 -278 19 -148 35 -278 35 -288 0 -10 11 -29 25 -42 23 -24 28 -25 175
-25 147 0 152 1 175 25 l25 24 0 1191 0 1191 -25 24 c-24 25 -27 25 -199 25
l-175 0 -3 288 -3 288 -37 76 c-68 136 -188 217 -336 224 -42 2 -94 -1 -116
-6z m-17 -515 c28 -111 42 -255 26 -255 -15 0 -63 31 -86 57 -52 55 -63 90
-67 211 l-4 112 50 0 50 0 31 -125z m751 -1275 l0 -760 -480 0 -480 0 0 80 0
80 335 0 336 0 23 23 c28 28 25 -5 66 737 17 305 33 565 36 578 4 21 9 22 84
22 l80 0 0 -760z m-742 594 c21 -6 22 -11 22 -95 0 -49 -2 -89 -4 -89 -2 0
-58 -11 -126 -25 -116 -24 -140 -25 -452 -25 l-329 0 -24 25 c-16 15 -25 36
-25 55 0 19 9 40 25 55 l24 25 303 0 304 0 114 39 c122 42 132 44 168 35z
m-537 -976 c82 -163 82 -162 24 -304 -44 -110 -130 -238 -217 -325 l-70 -69
-88 0 -88 0 180 420 c99 231 182 420 184 420 2 0 36 -64 75 -142z"/>
<path d="M2345 3415 c-24 -23 -25 -29 -25 -160 0 -115 -2 -135 -15 -135 -9 0
-27 -11 -40 -25 l-25 -24 0 -256 0 -255 -240 0 -240 0 0 -80 0 -80 360 0 360
0 0 -720 0 -720 80 0 80 0 0 720 0 720 360 0 360 0 0 80 0 80 -240 0 -240 0 0
255 0 256 -25 24 c-13 14 -31 25 -40 25 -13 0 -15 20 -15 135 0 131 -1 137
-25 160 -24 25 -26 25 -215 25 -189 0 -191 0 -215 -25z"/>
</g>
</svg>
