<?xml version="1.0" standalone="no"?>
<!DOCTYPE svg PUBLIC "-//W3C//DTD SVG 20010904//EN"
 "http://www.w3.org/TR/2001/REC-SVG-20010904/DTD/svg10.dtd">
<svg version="1.0" xmlns="http://www.w3.org/2000/svg"
 width="512.000000pt" height="512.000000pt" viewBox="0 0 512.000000 512.000000"
 preserveAspectRatio="xMidYMid meet">

<g transform="translate(0.000000,512.000000) scale(0.100000,-0.100000)"
fill="#000000" stroke="none">
<path d="M1935 5051 c-17 -10 -43 -33 -58 -51 l-28 -33 -22 21 c-32 29 -82 52
-112 52 -16 0 -38 -12 -57 -30 -29 -30 -30 -33 -26 -105 l3 -75 -32 0 c-77 0
-133 -43 -133 -104 0 -34 6 -46 48 -86 l48 -46 -28 -44 c-39 -62 -38 -110 4
-145 27 -23 39 -26 89 -23 l57 3 12 -52 c21 -98 87 -129 163 -78 20 14 37 29
37 33 0 4 7 16 15 26 15 19 15 19 38 -2 32 -30 93 -53 122 -46 14 3 37 20 51
37 22 26 25 38 22 83 l-3 52 46 6 c26 4 59 16 74 28 56 44 53 102 -10 161
l-42 40 34 49 c43 65 44 108 3 150 -29 29 -34 30 -95 26 l-63 -4 -7 45 c-17
111 -78 157 -150 112z m70 -161 c1 -102 8 -109 78 -87 128 40 151 11 62 -78
-64 -63 -63 -80 3 -114 20 -10 48 -30 60 -44 24 -25 24 -25 4 -36 -12 -6 -47
-11 -80 -11 -75 0 -90 -14 -73 -69 12 -42 15 -94 5 -104 -10 -10 -45 12 -90
55 -25 24 -49 38 -60 36 -10 -1 -33 -29 -52 -61 -55 -95 -84 -89 -84 17 1 83
-11 95 -74 78 -64 -17 -114 -16 -114 3 0 9 20 38 45 64 58 61 58 84 3 112 -50
25 -88 57 -88 75 0 16 34 24 113 24 81 0 87 8 63 84 -15 51 -22 126 -11 126
18 0 65 -34 97 -70 22 -24 45 -40 55 -38 9 2 31 27 48 57 37 63 64 86 79 71 6
-6 11 -47 11 -90z"/>
<path d="M1818 4740 c-56 -43 -61 -125 -10 -173 77 -73 192 -21 192 87 0 30
-7 45 -34 72 -29 29 -41 34 -79 34 -29 0 -53 -7 -69 -20z m97 -89 c0 -34 -30
-51 -51 -29 -25 24 -10 60 24 56 21 -2 27 -8 27 -27z"/>
<path d="M2266 4369 c-18 -31 -18 -32 0 -42 11 -6 45 -35 77 -66 105 -100 173
-277 184 -483 l6 -108 -104 0 c-57 0 -111 -5 -119 -10 -13 -8 -15 -79 -18
-525 l-3 -515 -140 0 -141 0 43 48 c49 56 85 128 99 202 14 76 13 313 -2 328
-17 17 -809 17 -826 0 -7 -7 -12 -22 -12 -34 0 -18 -7 -23 -42 -29 -54 -9 -86
-25 -120 -62 -76 -79 -76 -197 0 -276 44 -47 80 -61 155 -60 37 1 67 -2 67 -7
0 -4 20 -30 45 -58 25 -27 45 -52 45 -55 0 -3 -11 -8 -24 -11 -36 -9 -87 -55
-102 -93 -18 -42 -18 -137 0 -171 19 -37 55 -68 98 -87 31 -12 94 -15 383 -15
l345 0 0 -105 c0 -125 0 -125 124 -125 l86 0 0 -940 0 -940 -221 -2 c-199 -3
-223 -5 -233 -21 -8 -12 -8 -22 0 -35 10 -16 52 -17 644 -17 592 0 634 1 644
17 8 13 8 23 0 35 -10 16 -34 18 -233 21 l-221 2 0 939 0 939 95 4 c71 2 98 7
105 18 5 8 10 59 10 113 l0 97 333 0 c340 0 392 5 436 37 54 41 66 69 66 152
0 70 -3 81 -28 115 -16 20 -44 44 -63 53 l-33 16 49 54 c28 30 50 58 50 62 0
5 30 8 68 7 73 0 108 13 156 61 87 86 71 238 -32 304 -24 15 -64 31 -88 35
-33 5 -44 11 -44 24 0 52 19 50 -419 50 -303 0 -410 -3 -419 -12 -15 -15 -16
-241 -1 -324 14 -77 49 -150 100 -208 l41 -46 -156 0 -156 0 0 519 c0 464 -2
520 -16 525 -9 3 -55 6 -103 6 l-88 0 -6 93 c-4 50 -10 124 -13 163 -5 60 -3
78 15 119 36 81 75 112 160 124 43 6 46 8 49 38 3 27 -1 33 -22 39 -65 16
-183 -40 -228 -110 l-22 -34 -28 56 c-16 31 -47 79 -69 108 -39 51 -136 134
-155 134 -5 0 -18 -14 -28 -31z m474 -1264 l0 -485 -180 0 -180 0 0 485 0 485
180 0 180 0 0 -485z m-660 -69 c0 -166 -27 -252 -105 -330 -70 -70 -116 -86
-242 -86 -89 0 -114 4 -152 22 -63 30 -128 98 -159 166 -23 50 -27 73 -30 190
l-4 132 346 0 346 0 0 -94z m1668 -39 c-3 -126 -5 -136 -36 -199 -35 -72 -87
-124 -157 -158 -33 -16 -62 -20 -148 -20 -128 0 -173 17 -247 91 -71 71 -92
133 -98 292 l-4 127 347 0 347 0 -4 -133z m-2438 -19 c0 -46 4 -99 9 -120 7
-32 6 -37 -11 -42 -35 -9 -91 17 -116 54 -43 63 -18 144 53 176 61 27 65 23
65 -68z m2585 68 c112 -47 91 -204 -30 -230 -45 -9 -55 2 -45 54 5 25 9 78 10
118 0 80 4 83 65 58z m-230 -520 c18 -8 38 -23 44 -34 14 -26 14 -97 1 -123
-28 -51 13 -49 -1150 -49 -1163 0 -1122 -2 -1150 49 -13 26 -13 97 1 122 26
49 2 48 1147 49 903 0 1078 -2 1107 -14z m-785 -361 l0 -75 -320 0 -320 0 0
75 0 75 320 0 320 0 0 -75z m-210 -1095 l0 -940 -110 0 -110 0 0 940 0 940
110 0 110 0 0 -940z"/>
<path d="M1576 3049 c-62 -49 -72 -121 -27 -190 34 -49 135 -137 169 -145 37
-10 147 72 193 145 65 102 14 211 -99 211 -21 0 -47 -6 -57 -14 -17 -12 -23
-12 -47 0 -40 21 -101 18 -132 -7z m114 -89 c28 -39 64 -40 82 -2 25 51 88 37
88 -19 0 -30 -49 -88 -104 -124 -24 -16 -27 -16 -54 4 -48 34 -102 100 -102
124 0 53 57 64 90 17z"/>
<path d="M3241 3045 c-36 -31 -55 -84 -47 -130 11 -58 162 -205 211 -205 49 0
200 147 211 205 15 82 -44 155 -125 155 -25 0 -56 -6 -67 -14 -17 -12 -22 -12
-39 0 -32 24 -109 18 -144 -11z m124 -85 c11 -21 23 -30 40 -30 17 0 29 9 40
30 12 23 22 30 45 30 40 0 56 -30 39 -71 -12 -30 -105 -119 -124 -119 -19 0
-112 89 -124 119 -17 41 -1 71 39 71 23 0 33 -7 45 -30z"/>
<path d="M32 3198 c-17 -17 -15 -30 12 -79 102 -185 168 -549 187 -1032 5
-149 15 -290 20 -312 24 -93 107 -187 204 -231 l54 -25 -14 -42 c-139 -419
-443 -1390 -439 -1401 3 -8 12 -17 20 -20 37 -14 52 13 114 206 34 106 93 290
131 408 l70 215 189 153 189 152 111 0 111 0 197 -155 197 -155 130 -406 c87
-273 136 -411 147 -418 20 -12 51 1 56 25 1 8 -101 336 -227 729 l-229 715 27
7 c14 4 93 23 175 43 214 52 418 120 443 147 34 36 46 77 32 109 -14 36 -44
55 -116 76 -50 14 -137 17 -618 23 -591 6 -601 7 -653 54 -52 47 -57 69 -72
357 -16 307 -50 490 -120 635 -48 99 -113 174 -182 208 -55 28 -126 34 -146
14z m179 -137 c118 -122 174 -352 198 -806 6 -110 16 -200 26 -233 20 -66 66
-113 142 -143 58 -23 62 -24 628 -30 557 -5 632 -10 650 -38 14 -24 -16 -41
-138 -79 -334 -105 -601 -158 -842 -169 -294 -12 -461 51 -531 201 -20 42 -24
67 -24 146 -1 452 -68 941 -159 1154 -26 60 -10 60 50 -3z m895 -1588 c-9 -16
-39 -66 -69 -113 l-54 -85 -104 -3 -104 -2 -66 108 -66 108 131 -3 c72 -2 165
0 206 5 41 5 90 10 108 11 l33 1 -15 -27z m164 -234 c38 -117 68 -214 67 -215
-3 -3 -272 207 -275 216 -3 9 130 222 136 216 2 -3 35 -100 72 -217z m-630
101 l62 -100 -23 -19 c-13 -11 -71 -57 -129 -104 -58 -47 -106 -84 -108 -82
-6 6 122 405 130 405 3 0 34 -45 68 -100z"/>
<path d="M4942 3184 c-28 -14 -72 -48 -97 -76 -50 -55 -114 -180 -139 -268
-30 -107 -56 -294 -66 -483 -18 -311 -27 -348 -97 -390 -53 -30 -176 -37 -653
-36 -494 0 -591 -7 -663 -48 -38 -23 -61 -65 -53 -99 14 -55 55 -81 203 -128
142 -46 411 -116 445 -116 10 0 21 -6 24 -14 3 -7 -96 -332 -220 -722 -125
-389 -226 -714 -226 -721 0 -7 9 -17 20 -23 32 -17 57 4 74 62 9 29 67 212
129 406 l113 353 198 154 198 155 112 0 111 0 190 -154 191 -155 129 -406 c91
-284 135 -410 147 -416 23 -12 58 6 58 29 0 9 -103 334 -229 722 l-228 705 62
32 c77 40 157 124 183 196 16 43 21 89 26 252 17 522 74 874 177 1095 35 74
40 92 29 105 -20 24 -89 19 -148 -11z m-3 -186 c-75 -225 -114 -498 -130 -912
-11 -307 -15 -327 -77 -397 -37 -43 -134 -92 -217 -111 -39 -8 -119 -13 -230
-12 -241 2 -497 50 -861 159 -156 47 -191 70 -145 94 51 28 167 34 633 32 511
-2 578 3 666 45 102 50 125 120 141 424 11 208 28 352 57 470 24 98 95 240
143 283 23 20 45 37 50 37 4 0 -9 -51 -30 -112z m-618 -1513 l155 0 -65 -108
-66 -107 -104 2 -104 3 -68 108 c-38 59 -69 110 -69 112 0 3 37 2 83 -2 45 -5
152 -8 238 -8z m-326 -135 c36 -56 64 -106 63 -110 -3 -9 -272 -220 -275 -216
-1 1 30 100 68 220 39 120 72 216 75 214 2 -3 33 -51 69 -108z m624 -113 c35
-109 61 -200 59 -202 -2 -2 -50 35 -108 82 -58 47 -115 94 -128 104 l-24 18
64 105 c34 58 66 102 69 98 3 -4 34 -96 68 -205z"/>
</g>
</svg>
