<?xml version="1.0" standalone="no"?>
<!DOCTYPE svg PUBLIC "-//W3C//DTD SVG 20010904//EN"
 "http://www.w3.org/TR/2001/REC-SVG-20010904/DTD/svg10.dtd">
<svg version="1.0" xmlns="http://www.w3.org/2000/svg"
 width="512.000000pt" height="512.000000pt" viewBox="0 0 512.000000 512.000000"
 preserveAspectRatio="xMidYMid meet">

<g transform="translate(0.000000,512.000000) scale(0.100000,-0.100000)"
fill="#000000" stroke="none">
<path d="M2434 4774 c-12 -3 -32 -16 -45 -30 -31 -33 -36 -114 -15 -259 12
-86 13 -136 6 -229 -8 -110 -11 -122 -40 -162 -17 -24 -37 -58 -44 -76 -29
-70 -47 -260 -51 -543 l-4 -280 -53 -6 c-73 -8 -102 2 -183 63 -81 61 -82 66
-77 221 4 94 5 99 29 108 61 23 114 87 138 167 27 88 11 432 -23 502 -25 52
-62 65 -226 80 -166 15 -184 11 -210 -44 -19 -40 -56 -296 -56 -387 0 -119 34
-215 92 -264 41 -35 105 -64 138 -65 l26 0 -1 -130 0 -131 -75 -48 c-41 -26
-84 -58 -94 -70 -13 -14 -31 -21 -55 -21 -60 0 -221 -29 -253 -46 -42 -22 -64
-80 -77 -209 -16 -150 -31 -433 -31 -590 0 -71 -3 -174 -7 -228 -6 -94 -7 -98
-27 -92 -66 19 -215 46 -315 55 -96 9 -134 9 -220 -4 -58 -9 -108 -16 -112
-16 -9 0 -11 9 -34 190 -9 69 -20 151 -26 184 -9 53 -9 60 10 80 31 33 57 101
83 216 20 92 23 132 23 320 0 200 -2 223 -27 332 -35 149 -68 239 -131 362
-58 113 -97 163 -145 183 -29 12 -48 12 -140 -3 -168 -26 -188 -43 -177 -152
24 -243 66 -557 105 -769 11 -56 24 -159 31 -230 17 -195 34 -288 59 -323 12
-16 28 -30 35 -30 17 0 22 -19 30 -115 4 -38 15 -128 26 -200 22 -146 27 -127
-46 -178 -43 -30 -85 -115 -85 -171 0 -84 51 -150 131 -169 l25 -6 -17 -103
c-9 -57 -24 -173 -34 -258 -9 -85 -28 -245 -42 -355 -13 -110 -30 -238 -35
-285 -9 -70 -8 -91 3 -115 20 -41 70 -67 142 -72 87 -7 132 13 157 69 22 51
64 319 80 508 21 259 62 597 73 605 1 1 131 5 290 8 l287 6 0 -93 c0 -106 16
-171 55 -223 31 -40 94 -72 143 -73 17 0 32 -1 32 -2 0 -2 -13 -79 -29 -173
-17 -93 -40 -258 -52 -366 -24 -222 -22 -237 41 -273 47 -28 192 -26 249 4 52
26 59 50 71 244 6 88 15 217 20 286 6 69 10 145 10 170 0 69 9 90 37 90 34 0
97 34 139 77 l37 37 16 -24 c102 -157 260 -185 360 -63 l31 38 32 -39 c51 -63
122 -81 193 -52 29 13 63 50 100 110 8 14 17 8 52 -38 71 -93 156 -118 248
-75 43 20 92 67 126 119 l16 24 37 -37 c42 -43 105 -77 139 -77 28 0 37 -21
37 -90 0 -25 4 -101 10 -170 5 -69 14 -198 20 -286 6 -89 15 -176 21 -193 17
-49 70 -71 176 -73 103 -2 145 14 170 66 14 30 14 48 -7 227 -12 107 -35 271
-51 364 -16 94 -29 171 -29 173 0 1 15 2 33 2 48 1 111 33 142 73 39 52 55
117 55 223 l0 93 288 -6 c158 -3 288 -7 290 -8 7 -6 54 -413 72 -615 17 -188
59 -449 80 -498 25 -56 70 -76 157 -69 72 5 122 31 142 72 11 24 12 45 3 115
-5 47 -22 175 -35 285 -14 110 -33 270 -42 355 -10 85 -25 201 -34 258 l-17
103 25 6 c80 19 131 85 131 169 0 56 -42 141 -85 171 -73 51 -68 32 -46 178
11 72 22 162 26 200 8 96 13 115 30 115 7 0 23 14 35 30 25 35 42 128 59 323
7 71 20 174 31 230 39 212 81 526 105 769 11 109 -9 126 -177 152 -121 19
-150 13 -200 -40 -73 -80 -168 -301 -215 -500 -26 -111 -28 -133 -28 -334 0
-188 3 -228 23 -320 26 -115 52 -183 83 -216 19 -20 19 -27 10 -80 -6 -33 -17
-115 -26 -184 -23 -181 -25 -190 -34 -190 -4 0 -54 7 -112 16 -86 13 -124 13
-220 4 -100 -9 -249 -36 -315 -55 -20 -6 -21 -2 -27 92 -4 54 -7 157 -7 228 0
153 -15 435 -31 590 -13 129 -35 187 -77 209 -32 17 -193 46 -253 46 -25 0
-42 7 -59 25 -13 14 -56 45 -96 70 l-71 45 -1 114 c-1 63 -3 120 -4 127 -2 8
14 16 41 20 48 9 115 45 148 81 65 70 83 192 59 403 -28 244 -46 285 -128 285
-72 -1 -283 -27 -304 -38 -57 -31 -71 -89 -80 -332 -5 -137 -4 -175 10 -221
24 -82 76 -144 140 -169 25 -9 26 -12 28 -97 3 -178 -1 -188 -99 -244 -29 -17
-53 -35 -53 -40 0 -5 -35 -9 -79 -9 l-79 0 -6 268 c-8 329 -20 489 -40 536 -8
20 -32 57 -52 81 -20 25 -40 61 -44 81 -10 42 -12 342 -4 484 7 132 11 129
-151 134 -71 3 -140 3 -151 0z m226 -122 l0 -47 -47 0 c-27 0 -74 -3 -105 -8
l-58 -7 0 48 c0 27 3 52 7 55 3 4 51 7 105 7 l98 0 0 -48z m-21 -138 c3 -2 8
-93 13 -202 5 -108 13 -207 18 -219 13 -32 4 -49 -37 -68 -49 -23 -111 -15
-157 20 -27 21 -35 32 -29 44 4 9 8 105 8 213 0 118 4 201 10 206 6 6 19 12
30 15 21 6 137 -1 144 -9z m-750 -284 c52 -6 97 -12 99 -15 9 -9 22 -85 22
-136 0 -49 -3 -59 -25 -73 -36 -23 -56 -20 -111 19 -57 41 -102 52 -152 37
-20 -6 -37 -10 -39 -8 -5 5 18 147 28 174 8 21 14 23 47 18 20 -3 80 -11 131
-16z m1527 -30 c6 -25 14 -69 18 -98 7 -53 7 -54 -16 -45 -13 4 -44 8 -69 8
-36 0 -56 -8 -100 -38 -60 -41 -78 -45 -114 -21 -22 14 -25 23 -25 78 0 33 5
78 10 98 10 35 13 37 63 42 29 4 81 10 117 15 100 14 103 12 116 -39z m-887
-250 c63 -15 113 -7 164 26 21 14 42 22 47 19 17 -11 30 -79 37 -192 l6 -113
-25 0 c-14 0 -82 5 -151 10 -88 7 -147 7 -193 0 -37 -6 -69 -8 -72 -5 -10 10
26 273 43 304 l16 32 38 -34 c24 -22 57 -39 90 -47z m-732 37 c12 -6 43 -27
70 -45 48 -34 55 -34 127 -16 26 6 26 6 26 -52 0 -84 -17 -133 -59 -175 -53
-53 -96 -58 -177 -20 -43 20 -70 40 -84 63 -27 45 -43 130 -35 187 5 39 11 49
33 58 37 15 73 15 99 0z m1619 1 c28 -10 33 -17 39 -55 15 -100 -20 -196 -87
-240 -35 -24 -52 -28 -111 -28 -66 0 -70 1 -102 37 -39 43 -55 91 -55 172 0
58 0 58 26 52 72 -18 79 -18 127 16 93 64 105 67 163 46z m-3112 -189 c34 -26
108 -172 146 -287 78 -236 97 -423 65 -659 -24 -183 -42 -250 -79 -287 -31
-30 -129 -72 -146 -61 -9 6 -24 83 -45 235 -9 63 -36 239 -60 391 -25 152 -52
358 -60 457 -8 98 -15 185 -17 193 -2 9 17 17 62 25 94 17 104 16 134 -7z
m4669 5 c26 -4 37 -11 37 -23 0 -88 -38 -423 -71 -621 -22 -135 -48 -326 -58
-425 -11 -99 -24 -193 -30 -209 -10 -25 -15 -28 -40 -23 -51 11 -121 48 -141
77 -40 56 -80 307 -80 498 0 126 27 274 80 434 39 116 113 261 147 288 29 22
32 22 156 4z m-2325 -172 c67 -5 124 -10 126 -13 2 -2 6 -57 10 -122 l7 -118
-232 3 -231 2 6 59 c3 33 6 92 6 131 l0 71 93 -3 c52 -1 148 -6 215 -10z m19
-322 l123 0 0 -32 c0 -18 -3 -43 -6 -55 -6 -23 -6 -23 -230 -23 l-224 0 0 62
0 61 107 -6 c58 -4 162 -7 230 -7z m-742 -105 l30 -25 -72 0 c-40 0 -73 2 -73
4 0 7 64 46 75 45 6 0 24 -11 40 -24z m1351 4 c19 -11 34 -23 34 -25 0 -2 -33
-4 -72 -4 l-73 0 30 25 c37 30 40 30 81 4z m69 -138 c303 -24 342 -29 359 -46
11 -12 21 -88 42 -345 12 -157 22 -705 12 -717 -6 -8 -34 -13 -70 -13 -33 0
-94 -9 -136 -19 -122 -31 -225 -42 -397 -42 -131 0 -182 5 -283 25 -269 55
-387 55 -778 -4 -192 -28 -471 -52 -524 -45 -14 2 -61 9 -105 15 -44 6 -88 14
-98 16 -16 5 -17 21 -12 247 10 419 37 848 55 877 12 20 81 29 381 50 161 12
296 24 299 27 3 3 228 3 500 0 365 -4 563 -11 755 -26z m-2915 -683 c0 -24 9
-110 20 -193 25 -188 25 -180 -5 -193 -42 -19 -55 -15 -55 17 0 16 -6 60 -14
98 -12 61 -36 217 -39 267 -2 15 8 23 38 32 22 7 43 13 48 13 4 1 7 -18 7 -41z
m4337 21 c18 -7 22 -14 18 -36 -42 -252 -55 -337 -55 -358 0 -15 -6 -25 -15
-25 -23 0 -65 22 -65 34 0 7 9 83 20 171 11 88 20 177 20 197 0 37 1 38 28 32
15 -4 37 -11 49 -15z m-3849 -449 c116 -13 285 -38 307 -46 13 -5 15 -24 13
-118 l-3 -111 -160 -6 c-88 -4 -298 -10 -466 -14 l-307 -8 -26 26 c-14 14 -26
36 -26 47 0 35 28 79 70 109 70 51 341 127 463 130 21 1 81 -4 135 -9z m3527
-5 c111 -18 297 -77 348 -111 43 -28 77 -78 77 -112 0 -13 -12 -35 -26 -49
l-26 -26 -307 8 c-168 4 -378 10 -466 14 l-160 6 -3 112 -3 112 38 10 c69 17
307 47 393 50 25 0 86 -6 135 -14z m-1797 -75 c61 -6 156 -22 210 -37 90 -24
112 -26 302 -27 177 0 225 3 355 26 83 14 174 29 203 32 l52 5 0 -79 0 -80
-69 0 c-39 0 -121 -7 -183 -15 -345 -44 -527 -45 -824 -6 -240 33 -291 32
-602 -4 -168 -20 -413 -19 -594 2 l-148 17 0 66 0 67 68 -19 c47 -14 111 -21
218 -25 163 -6 250 2 544 47 272 43 302 45 468 30z m-1178 -242 c97 -17 581
-17 700 0 160 23 336 26 445 9 288 -47 553 -52 830 -18 94 11 206 21 251 21
l81 0 6 -107 c7 -132 -2 -195 -33 -228 -50 -54 -124 -19 -178 83 -54 101 -106
92 -142 -25 -22 -72 -52 -113 -82 -113 -50 0 -110 55 -154 142 -27 53 -41 63
-78 54 -20 -5 -29 -21 -51 -83 -14 -43 -33 -87 -43 -98 -53 -63 -113 -72 -161
-24 -28 28 -101 162 -101 186 0 5 -11 20 -24 32 -37 35 -57 17 -90 -86 -37
-113 -62 -163 -84 -164 -40 -3 -58 3 -79 27 -19 20 -23 37 -23 87 0 153 -65
208 -105 88 -20 -60 -79 -160 -108 -183 -42 -33 -103 -18 -149 37 -10 11 -29
55 -43 98 -22 62 -31 78 -51 83 -37 9 -51 -1 -78 -54 -44 -87 -104 -142 -154
-142 -30 0 -60 41 -82 113 -36 117 -88 126 -142 25 -54 -102 -128 -137 -178
-83 -31 33 -40 95 -33 233 l6 113 26 -5 c14 -3 60 -11 101 -18z m-935 -90 c-3
-7 -23 -191 -45 -408 -41 -404 -74 -635 -93 -659 -11 -13 -100 -12 -114 2 -3
4 4 73 16 154 12 80 33 271 46 422 13 152 30 327 36 389 l13 112 73 0 c54 0
71 -3 68 -12z m4195 -17 c0 -16 6 -82 14 -148 8 -65 22 -199 31 -298 18 -203
29 -307 52 -478 8 -65 13 -121 9 -124 -13 -14 -102 -15 -113 -2 -22 28 -88
532 -123 947 -6 63 -12 118 -16 123 -3 5 28 9 70 9 l76 0 0 -29z m-1137 -416
c3 -55 13 -143 22 -195 29 -171 53 -453 40 -468 -9 -10 -25 -11 -75 -3 -35 6
-68 15 -73 20 -5 5 -13 89 -18 187 -5 99 -16 261 -24 362 l-16 183 25 30 c14
16 27 38 31 48 5 17 10 15 44 -22 38 -41 38 -43 44 -142z m-1954 127 l34 -47
-11 -105 c-7 -58 -19 -222 -28 -365 -9 -143 -18 -262 -20 -264 -10 -11 -138
-20 -149 -11 -15 13 16 338 71 736 4 28 51 104 64 103 3 0 20 -21 39 -47z"/>
</g>
</svg>
