<?xml version="1.0" standalone="no"?>
<!DOCTYPE svg PUBLIC "-//W3C//DTD SVG 20010904//EN"
 "http://www.w3.org/TR/2001/REC-SVG-20010904/DTD/svg10.dtd">
<svg version="1.0" xmlns="http://www.w3.org/2000/svg"
 width="100.000000pt" height="100.000000pt" viewBox="0 0 100.000000 100.000000"
 preserveAspectRatio="xMidYMid meet">

<g transform="translate(0.000000,100.000000) scale(0.100000,-0.100000)"
fill="#000000" stroke="none">
<path d="M122 837 c-28 -30 -28 -68 1 -95 30 -28 68 -28 95 1 28 30 28 68 -1
95 -30 28 -68 28 -95 -1z"/>
<path d="M782 837 c-28 -30 -28 -68 1 -95 30 -28 68 -28 95 1 28 30 28 68 -1
95 -30 28 -68 28 -95 -1z"/>
<path d="M122 677 c-20 -21 -22 -34 -22 -148 0 -118 1 -127 23 -147 16 -15 36
-22 64 -22 37 0 41 2 47 31 3 17 6 83 6 146 0 108 -1 115 -25 138 -30 31 -65
32 -93 2z"/>
<path d="M781 674 c-18 -23 -21 -41 -21 -139 0 -62 3 -127 6 -144 6 -29 9 -31
50 -31 34 0 47 5 63 26 19 24 21 40 21 149 0 114 -1 123 -23 143 -32 30 -71
28 -96 -4z"/>
<path d="M47 674 c-4 -4 -7 -78 -7 -164 0 -140 2 -160 19 -182 18 -22 18 -32
9 -107 -6 -56 -6 -87 0 -93 18 -18 31 1 37 60 13 120 7 112 87 112 l70 0 -7
-42 c-3 -24 -9 -57 -12 -74 -6 -39 24 -64 77 -64 76 0 79 3 82 94 2 64 6 81
18 81 12 0 16 -17 18 -80 3 -87 8 -95 62 -95 51 0 59 9 62 75 2 45 7 60 18 60
11 0 16 -15 18 -62 l3 -62 34 -7 c43 -8 99 2 114 20 9 10 9 31 1 77 -5 35 -10
67 -10 72 0 4 31 7 69 7 79 0 73 8 86 -112 6 -59 19 -78 37 -60 6 6 6 37 0 92
-9 76 -9 85 9 109 18 24 19 41 17 186 -3 134 -5 160 -18 160 -13 0 -15 -25
-18 -154 -1 -93 -7 -160 -13 -168 -8 -9 -38 -13 -94 -13 l-83 0 -12 88 c-6 48
-15 101 -19 117 l-7 30 -194 0 -194 0 -7 -30 c-4 -16 -13 -69 -19 -117 l-12
-88 -83 0 c-56 0 -86 4 -94 13 -6 8 -12 74 -13 167 -3 143 -9 175 -31 154z"/>
</g>
</svg>
